<?xml version="1.0" encoding="utf-8"?>
<!-- Generator: Adobe Illustrator 20.1.0, SVG Export Plug-In . SVG Version: 6.00 Build 0)  -->
<svg version="1.1" id="Layer_1" xmlns="http://www.w3.org/2000/svg" xmlns:xlink="http://www.w3.org/1999/xlink" x="0px" y="0px"
	 viewBox="0 0 1958 1541.5" style="enable-background:new 0 0 1958 1541.5;" xml:space="preserve">
<style type="text/css">
	.st0{fill:#4A4B5D;}
</style>
<g>
	<path class="st0" d="M1744.1,1215c110.5-125.6,175.4-278.8,175.4-444.3C1919.6,345.1,1489.9,0,959.8,0S0,345.1,0,770.7
		s429.7,770.7,959.8,770.7c140.2,0,273.3-24.1,393.4-67.5c430.5,112.2,604.9,19.7,604.9,19.7S1779.4,1367.8,1744.1,1215z
		 M1039.3,1239.1c0,19-15.7,34.7-34.7,34.7h-69.4c-19,0-34.7-15.7-34.7-34.7V961.5h138.8V1239.1z M1386.2,892.2
		c0,19-15.7,34.7-34.7,34.7H623c-13.6,0-27.1-5.4-36.9-15.2l-76.4-76.4c-7-7-7-17.9,0-24.9l76.4-76.4c9.8-9.8,23.3-15.2,36.9-15.2
		h277.5V614.6h138.8v104.1h312.2c19,0,34.7,15.7,34.7,34.7V892.2z M1430.1,488.3l-76.4,76.4c-9.8,9.8-23.3,15.2-36.9,15.2H588.3
		c-19,0-34.7-15.7-34.7-34.7V406.5c0-19,15.7-34.7,34.7-34.7h312.2v-34.7c0-19,15.7-34.7,34.7-34.7h69.4c19,0,34.7,15.7,34.7,34.7
		v34.7h277.5c13.6,0,27.1,5.4,36.9,15.2l76.4,76.4C1437.2,470.4,1437.2,481.3,1430.1,488.3z"/>
</g>
</svg>
